<svg width="28" height="24" fill="none" xmlns="http://www.w3.org/2000/svg"><path fill-rule="evenodd" clip-rule="evenodd" d="M0 3.96c0-.237.093-.464.259-.632a.877.877 0 0 1 .624-.261h.882c3.887 0 6.756 2.215 8.605 4.32.742.85 1.407 1.767 1.988 2.737.58-.97 1.245-1.887 1.987-2.737 1.85-2.105 4.718-4.32 8.606-4.32v1.786c-3.175 0-5.6 1.805-7.285 3.72a17.202 17.202 0 0 0-2.326 3.426 17.206 17.206 0 0 0 2.325 3.428c1.686 1.915 4.115 3.72 7.286 3.72v1.785c-3.887 0-6.756-2.215-8.605-4.32a18.925 18.925 0 0 1-1.988-2.737c-.58.97-1.245 1.887-1.988 2.737-1.849 2.106-4.717 4.32-8.605 4.32H.883a.877.877 0 0 1-.624-.261.899.899 0 0 1 0-1.264.877.877 0 0 1 .624-.261h.882c3.174 0 5.6-1.805 7.285-3.72a17.202 17.202 0 0 0 2.326-3.427 17.207 17.207 0 0 0-2.325-3.427C7.365 6.658 4.936 4.853 1.765 4.853H.883a.877.877 0 0 1-.624-.261A.899.899 0 0 1 0 3.96Z" fill="#fff"/><path d="M22.95 7.472V.447a.45.45 0 0 1 .255-.405.437.437 0 0 1 .47.062l4.166 3.513A.445.445 0 0 1 28 3.96a.451.451 0 0 1-.159.343l-4.166 3.513a.439.439 0 0 1-.656-.104.45.45 0 0 1-.068-.24Zm0 16.08v-7.024a.45.45 0 0 1 .255-.406.436.436 0 0 1 .47.062l4.166 3.513a.445.445 0 0 1 .159.343.451.451 0 0 1-.159.343l-4.166 3.513a.439.439 0 0 1-.656-.103.45.45 0 0 1-.068-.24Z" fill="#fff"/></svg>