<svg width="28" height="24" fill="none" xmlns="http://www.w3.org/2000/svg"><path d="M5.794 1.09c0-.143-.025-.284-.073-.417A1.11 1.11 0 0 0 5.51.32a.967.967 0 0 0-.313-.236.87.87 0 0 0-.739 0 .967.967 0 0 0-.313.236 1.11 1.11 0 0 0-.21.354 1.214 1.214 0 0 0-.073.418v19.182l-2.21-2.502a.915.915 0 0 0-.685-.32.915.915 0 0 0-.684.319 1.169 1.169 0 0 0-.284.773c0 .29.102.568.283.773l3.862 4.36.013.016c.182.2.426.31.679.308a.909.909 0 0 0 .673-.321l3.862-4.364c.182-.204.284-.482.284-.771 0-.29-.102-.567-.283-.772a.914.914 0 0 0-.683-.32.914.914 0 0 0-.683.319l-2.213 2.502V1.09Zm7.724 1.091a.913.913 0 0 1-.682-.32 1.166 1.166 0 0 1-.283-.77c0-.29.102-.567.283-.772A.913.913 0 0 1 13.518 0h1.93c.256 0 .502.115.683.32.181.204.283.481.283.77 0 .29-.102.567-.283.772a.913.913 0 0 1-.683.32h-1.93Zm0 6.545a.913.913 0 0 1-.682-.32 1.166 1.166 0 0 1-.283-.77c0-.29.102-.567.283-.772a.913.913 0 0 1 .682-.32h5.793c.256 0 .502.116.683.32.18.205.282.482.282.771 0 .29-.101.567-.282.772a.913.913 0 0 1-.683.319h-5.793Zm0 6.545a.87.87 0 0 1-.37-.083.965.965 0 0 1-.312-.237 1.108 1.108 0 0 1-.21-.354 1.215 1.215 0 0 1 0-.834 1.11 1.11 0 0 1 .21-.354.966.966 0 0 1 .313-.237.87.87 0 0 1 .37-.083h9.654a.87.87 0 0 1 .369.083.969.969 0 0 1 .313.237c.09.101.16.221.21.354a1.212 1.212 0 0 1 0 .834 1.11 1.11 0 0 1-.21.354.967.967 0 0 1-.313.237.87.87 0 0 1-.37.083h-9.654Zm-.965 5.454c0 .289.102.566.283.77.18.205.426.32.682.32h13.517a.913.913 0 0 0 .682-.32c.181-.204.283-.481.283-.77 0-.29-.102-.567-.283-.772a.913.913 0 0 0-.682-.32H13.518a.871.871 0 0 0-.37.084.968.968 0 0 0-.313.237 1.11 1.11 0 0 0-.21.354 1.216 1.216 0 0 0-.073.417Z" fill="#fff"/></svg>