<svg width="144" height="32" fill="none" xmlns="http://www.w3.org/2000/svg"><path d="M38.725 0H34.76l-3.84 5.064v14.04h3.91v-6.971h3.81v6.971h3.911V5.064L38.725 0Zm-.084 8.388h-3.81V5.9l1.67-2.237h.468l1.672 2.237v2.487ZM51.935 3.966h4.675V.236h-6.493L46.29 5.28v13.826h3.91v-6.976h5.133V8.388H50.19V6.266l1.745-2.3ZM80.202.225V13.46l-1.66 2.209h-.492l-1.665-2.209V.225h-3.91v14.054l3.899 5.05h3.828l3.903-5.05V.225h-3.903ZM113.264 3.966V.236h-10.313v13.842l3.826 5.026h6.488v-3.702h-4.644l-1.763-2.339V11.82h5.314V8.142h-5.314V3.966h6.406ZM95.599 0h-3.965l-3.84 5.064v14.04h3.91v-6.971h3.81v6.971h3.91V5.064L95.6 0Zm-.085 8.388h-3.81V5.9l1.67-2.237h.469l1.671 2.237v2.487ZM125.621 11.365l2.885-3.055V3.658L125.85.24h-9.062v18.868h3.861v-7.014h1.131l3.046 4.579V19.1h3.857v-3.427s-2.511-3.504-3.062-4.309Zm-2.444-2.984h-2.53V3.97h3.038l.912.85v2.646l-.851.92-.569-.006ZM24.374 11.361l2.886-3.053V3.654L24.604.237H15.54v18.866h3.862v-7.009h1.13l3.046 4.579V19.1h3.857v-3.427s-2.51-3.507-3.062-4.313Zm-4.97-2.984v-4.41h3.037l.912.85v2.647l-.854.92-3.095-.007ZM141.245 8.351c.271-.497 2.5-4.425 2.5-4.425V.236h-3.862v2.986l-2.916 5.157h-.996V.237h-3.857v18.871h3.86v-6.974h3.174l.921.846v6.127h3.883v-7.353l-2.707-3.403ZM7.769 3.228l-2.914 5.15h-.996V.238H0v18.871h3.861v-6.974h3.17l.921.846v6.127h3.884v-7.353S9.203 8.442 9.124 8.35c.277-.497 2.507-4.425 2.507-4.425V.236H7.769M58.814 3.97h3.417v15.134h3.867V3.969h3.43V.242H58.813v3.727ZM75.5 30.593l-2.13-2.438v2.438h-.802v-5.026h.803v2.42l2.121-2.42h.969l-2.206 2.485 2.25 2.54-1.005.001ZM80.204 28.141v2.453h-.794v-2.2c0-.568-.255-.838-.745-.838a.778.778 0 0 0-.747.494.79.79 0 0 0-.056.312v2.229h-.792v-3.684h.61l.088.547h.02a1.306 1.306 0 0 1 1.114-.628 1.21 1.21 0 0 1 1.231.797c.06.166.085.342.07.518ZM81.016 28.746a1.885 1.885 0 0 1 1.188-1.697 1.86 1.86 0 0 1 2.018.438 1.882 1.882 0 0 1 .386 2.04c-.142.34-.38.63-.686.835a1.862 1.862 0 0 1-1.031.316 1.84 1.84 0 0 1-1.351-.56 1.86 1.86 0 0 1-.524-1.372Zm2.93 0a1.082 1.082 0 0 0-.744-.902 1.066 1.066 0 0 0-1.122.313 1.081 1.081 0 0 0 .22 1.62c.174.113.376.173.583.172a1.097 1.097 0 0 0 .789-.372 1.11 1.11 0 0 0 .274-.831ZM87.936 27.897h-.02l-.826 2.696h-.914l-1.014-3.689h.833l.68 2.823h.019l.84-2.823h.802l.84 2.823h.014l.701-2.823h.781l-1.007 3.689h-.903l-.826-2.696ZM93.87 27.318h.011a1.265 1.265 0 0 1 1.022-.504 1.2 1.2 0 0 1 1.248.803c.059.17.08.35.061.527v2.446h-.792v-2.2c0-.567-.243-.843-.739-.843a.748.748 0 0 0-.762.48.758.758 0 0 0-.05.316v2.249h-.794v-5.413h.794v2.139ZM97.028 28.746a1.885 1.885 0 0 1 1.188-1.697 1.86 1.86 0 0 1 2.018.438 1.888 1.888 0 0 1-.3 2.875 1.862 1.862 0 0 1-1.031.316 1.84 1.84 0 0 1-1.351-.56 1.86 1.86 0 0 1-.524-1.372Zm2.93 0a1.08 1.08 0 0 0-.744-.904 1.067 1.067 0 0 0-1.125.313 1.081 1.081 0 0 0 .806 1.794 1.097 1.097 0 0 0 .788-.372 1.11 1.11 0 0 0 .274-.831ZM103.946 27.897h-.02l-.826 2.696h-.916l-1.014-3.689h.834l.677 2.823h.021l.84-2.823h.802l.84 2.823h.012l.702-2.823h.781l-1.008 3.689h-.902l-.823-2.696ZM109.973 26.904h1.014v.676h-1.014v1.637a.677.677 0 0 0 .204.557.682.682 0 0 0 .562.185 2.03 2.03 0 0 0 .33-.034v.684a2.6 2.6 0 0 1-.49.047 1.267 1.267 0 0 1-1.02-.371 1.284 1.284 0 0 1-.365-1.027V27.58h-.538v-.676h.56v-.858h.766l-.009.857ZM111.544 28.746a1.876 1.876 0 0 1 1.189-1.697 1.858 1.858 0 0 1 2.017.438 1.882 1.882 0 0 1-2.064 3.05 1.854 1.854 0 0 1-1.142-1.791Zm2.93 0a1.074 1.074 0 0 0-1.351-.917 1.084 1.084 0 0 0-.3 1.947c.174.113.377.174.584.174a1.098 1.098 0 0 0 1.015-.759c.047-.143.065-.295.052-.445ZM117.705 28.745a1.757 1.757 0 0 1 .077-.702 1.764 1.764 0 0 1 1.576-1.23 1.377 1.377 0 0 1 1.222.69v-2.32h.794v5.41h-.659l-.095-.627a1.428 1.428 0 0 1-1.25.723 1.775 1.775 0 0 1-1.24-.62 1.797 1.797 0 0 1-.425-1.324Zm2.888 0a1.056 1.056 0 0 0-1.338-.873 1.056 1.056 0 0 0-.749.866 1.066 1.066 0 0 0 .475 1.044c.171.11.369.167.572.167a1.085 1.085 0 0 0 1.04-1.204ZM125.621 28.992h-2.638a1.2 1.2 0 0 0 1.25 1.026c.436-.006.858-.16 1.195-.438v.717c-.376.255-.822.39-1.276.385a1.917 1.917 0 0 1-1.331-.548 1.938 1.938 0 0 1-.089-2.68c.332-.372.795-.6 1.292-.636a1.637 1.637 0 0 1 1.228.565 1.663 1.663 0 0 1 .392 1.3 2.464 2.464 0 0 1-.023.31Zm-.733-.534a.903.903 0 0 0-.222-.683.898.898 0 0 0-.652-.296 1.079 1.079 0 0 0-1.034.979h1.908ZM125.975 26.904h.847l.92 2.823h.02l.921-2.823h.82l-1.338 3.689h-.857l-1.333-3.689ZM133.231 28.992h-2.641a1.2 1.2 0 0 0 1.25 1.026c.437-.006.859-.16 1.197-.438v.717c-.376.255-.822.39-1.276.385a1.917 1.917 0 0 1-1.331-.548 1.94 1.94 0 0 1-.089-2.68c.332-.372.795-.6 1.292-.636a1.637 1.637 0 0 1 1.562 1.173c.067.224.086.46.056.692.001.103-.006.207-.02.31Zm-.731-.534a.903.903 0 0 0-.222-.683.898.898 0 0 0-.651-.296 1.08 1.08 0 0 0-1.036.979h1.909ZM134.112 25.183h.792v5.41h-.792v-5.41ZM135.764 28.746a1.877 1.877 0 0 1 1.188-1.697 1.861 1.861 0 0 1 2.018.438 1.888 1.888 0 0 1-.3 2.875 1.864 1.864 0 0 1-1.031.316 1.838 1.838 0 0 1-1.351-.56 1.852 1.852 0 0 1-.524-1.372Zm2.929 0a1.11 1.11 0 0 0-1.06-1.202 1.198 1.198 0 0 0-1.209.641 1.213 1.213 0 0 0 .779 1.735 1.196 1.196 0 0 0 1.277-.487 1.21 1.21 0 0 0 .213-.687ZM140.34 26.904h.658l.087.628a1.443 1.443 0 0 1 1.25-.722c.461.067.882.298 1.188.65a1.96 1.96 0 0 1 .013 2.55 1.942 1.942 0 0 1-1.181.663 1.423 1.423 0 0 1-1.229-.69V32h-.792l.006-5.096Zm2.869 1.841a1.067 1.067 0 0 0-.744-.867 1.049 1.049 0 0 0-1.094.317 1.063 1.063 0 0 0 .783 1.76 1.1 1.1 0 0 0 1.005-.765 1.13 1.13 0 0 0 .05-.444v-.001Z" fill="#2F2F2F"/></svg>