<svg width="144" height="33" fill="none" xmlns="http://www.w3.org/2000/svg"><path d="M38.725 0H34.76l-3.84 5.223V19.7h3.91v-7.19h3.81v7.19h3.911V5.223L38.725 0Zm-.084 8.65h-3.81V6.085L36.5 3.78h.468l1.672 2.306V8.65ZM51.935 4.09h4.675V.242h-6.493L46.29 5.446v14.258h3.91V12.51h5.133V8.65H50.19V6.462l1.745-2.373ZM80.202.232V13.88l-1.66 2.278h-.492l-1.665-2.278V.231h-3.91v14.494l3.899 5.208h3.828l3.903-5.208V.232h-3.903ZM113.264 4.09V.242h-10.313v14.275l3.826 5.183h6.488v-3.818h-4.644l-1.763-2.412v-1.283h5.314V8.396h-5.314V4.09h6.406ZM95.599 0h-3.965l-3.84 5.223V19.7h3.91v-7.19h3.81v7.19h3.91V5.223L95.6 0Zm-.085 8.65h-3.81V6.085l1.67-2.306h.469l1.671 2.306V8.65ZM125.621 11.72l2.885-3.15V3.772L125.85.247h-9.062v19.458h3.861v-7.233h1.131l3.046 4.722v2.504h3.857v-3.534s-2.511-3.614-3.062-4.443Zm-2.444-3.077h-2.53V4.096h3.038l.912.876v2.729l-.851.948-.569-.006ZM24.374 11.717l2.886-3.15V3.769L24.604.244H15.54V19.7h3.862v-7.228h1.13l3.046 4.722v2.504h3.857v-3.534s-2.51-3.617-3.062-4.447Zm-4.97-3.078V4.092h3.037l.912.876v2.73l-.854.948-3.095-.007ZM141.245 8.613c.271-.514 2.5-4.564 2.5-4.564V.244h-3.862v3.078l-2.916 5.319h-.996V.244h-3.857v19.461h3.86v-7.192h3.174l.921.873v6.319h3.883V12.12l-2.707-3.508ZM7.769 3.329 4.855 8.64h-.996V.244H0v19.461h3.861v-7.192h3.17l.921.873v6.319h3.884V12.12S9.203 8.706 9.124 8.613c.277-.514 2.507-4.564 2.507-4.564V.244H7.769M58.814 4.094h3.417V19.7h3.867V4.094h3.43V.25H58.813v3.844ZM75.5 31.549l-2.13-2.514v2.514h-.802v-5.183h.803v2.495l2.121-2.495h.969l-2.206 2.562 2.25 2.62H75.5ZM80.204 29.02v2.53h-.794v-2.268c0-.587-.255-.865-.745-.865a.756.756 0 0 0-.574.236.813.813 0 0 0-.229.595v2.299h-.792v-3.799h.61l.088.564h.02c.117-.198.28-.362.475-.475.196-.114.415-.173.64-.173.174-.014.35.012.514.076.165.063.314.163.437.292.124.128.22.284.28.454.06.171.084.353.07.535ZM81.016 29.644c.01-.38.128-.749.34-1.06.211-.311.506-.551.848-.69.342-.138.716-.169 1.075-.089.359.08.687.269.943.541.256.273.43.617.498.991.069.374.03.76-.112 1.112-.142.35-.38.65-.686.862a1.823 1.823 0 0 1-1.031.326c-.251.004-.5-.045-.733-.145a1.847 1.847 0 0 1-.618-.433 1.926 1.926 0 0 1-.403-.651 1.98 1.98 0 0 1-.121-.764Zm2.93 0a1.134 1.134 0 0 0-.24-.579 1.07 1.07 0 0 0-.504-.35 1.035 1.035 0 0 0-.607-.012c-.2.058-.378.173-.515.334a1.15 1.15 0 0 0-.176 1.194c.085.195.222.36.396.477.174.116.376.178.583.178a1.07 1.07 0 0 0 .432-.108c.136-.066.257-.16.357-.276a1.185 1.185 0 0 0 .274-.857ZM87.936 28.77h-.02l-.826 2.779h-.914l-1.014-3.804h.833l.68 2.91h.019l.84-2.91h.802l.84 2.91h.014l.701-2.91h.781l-1.007 3.804h-.903l-.826-2.78ZM93.87 28.172h.011c.12-.164.274-.296.451-.387.178-.09.373-.136.57-.133.178-.018.357.006.524.07.168.062.32.163.445.294.125.132.22.29.28.464.059.175.08.36.061.544v2.522h-.792v-2.268c0-.586-.243-.87-.739-.87a.727.727 0 0 0-.587.218.804.804 0 0 0-.225.603v2.319h-.794v-5.582h.794v2.206ZM97.028 29.644c.01-.38.128-.749.34-1.06a1.88 1.88 0 0 1 .848-.69c.342-.138.716-.169 1.074-.089.36.08.687.269.944.541.256.273.429.617.498.991.068.374.029.76-.113 1.112-.142.35-.38.65-.685.862a1.823 1.823 0 0 1-1.031.326c-.252.004-.501-.045-.733-.145a1.846 1.846 0 0 1-.618-.433 1.927 1.927 0 0 1-.403-.651 1.98 1.98 0 0 1-.121-.764Zm2.93 0a1.133 1.133 0 0 0-.24-.58 1.072 1.072 0 0 0-.504-.352 1.037 1.037 0 0 0-.608-.01c-.2.056-.38.172-.517.333a1.15 1.15 0 0 0-.176 1.196c.086.195.224.361.398.477.174.117.376.178.584.178a1.07 1.07 0 0 0 .432-.108c.136-.066.257-.16.356-.276a1.183 1.183 0 0 0 .274-.857ZM103.946 28.77h-.02l-.826 2.779h-.916l-1.014-3.804h.834l.677 2.91h.021l.84-2.91h.802l.84 2.91h.012l.702-2.91h.781l-1.008 3.804h-.902l-.823-2.78ZM109.973 27.745h1.014v.697h-1.014v1.688a.718.718 0 0 0 .204.575.657.657 0 0 0 .562.191c.111-.003.221-.014.33-.035v.704a2.529 2.529 0 0 1-.49.05 1.261 1.261 0 0 1-1.02-.383 1.33 1.33 0 0 1-.297-.488 1.368 1.368 0 0 1-.068-.572v-1.73h-.538v-.696h.56v-.884h.766l-.009.883ZM111.544 29.644c.011-.38.129-.749.34-1.06.212-.311.507-.551.849-.69.342-.138.715-.169 1.074-.089.359.08.687.269.943.541.257.273.43.617.499.991.068.374.029.76-.113 1.112-.142.35-.381.65-.686.862a1.822 1.822 0 0 1-1.031.326c-.251.004-.5-.045-.733-.145a1.855 1.855 0 0 1-.618-.433 1.931 1.931 0 0 1-.402-.651 1.982 1.982 0 0 1-.122-.764Zm2.93 0a1.143 1.143 0 0 0-.238-.58 1.072 1.072 0 0 0-.505-.353 1.035 1.035 0 0 0-.608-.012c-.2.057-.38.172-.517.332a1.154 1.154 0 0 0-.179 1.196c.085.197.223.363.396.48.174.116.377.178.584.178.15-.004.298-.04.434-.106a1.11 1.11 0 0 0 .358-.276 1.18 1.18 0 0 0 .275-.859ZM117.705 29.643a1.865 1.865 0 0 1 .42-1.359 1.77 1.77 0 0 1 .554-.446 1.72 1.72 0 0 1 .679-.187c.246-.005.49.058.704.183.215.125.394.307.518.528V25.97h.794v5.579h-.659l-.095-.648a1.46 1.46 0 0 1-.527.548c-.22.131-.469.2-.723.198a1.733 1.733 0 0 1-.682-.19 1.79 1.79 0 0 1-.558-.448 1.904 1.904 0 0 1-.425-1.366Zm2.888 0a1.105 1.105 0 0 0-.244-.562 1.047 1.047 0 0 0-.499-.336c-.194-.06-.4-.06-.595-.002a1.052 1.052 0 0 0-.501.332 1.13 1.13 0 0 0-.163 1.171c.084.192.22.353.39.466.171.113.369.173.572.173a1.058 1.058 0 0 0 .781-.386 1.151 1.151 0 0 0 .259-.855ZM125.621 29.898h-2.638c.043.306.195.585.427.781.231.196.525.295.823.277a1.889 1.889 0 0 0 1.195-.452v.74a2.178 2.178 0 0 1-1.276.396 1.886 1.886 0 0 1-1.331-.564 2.025 2.025 0 0 1-.582-1.364 2.036 2.036 0 0 1 .493-1.4 1.897 1.897 0 0 1 1.292-.656c.232.001.462.054.674.154.212.1.401.247.554.429a1.731 1.731 0 0 1 .392 1.34 2.618 2.618 0 0 1-.023.319Zm-.733-.55a.958.958 0 0 0-.222-.705.864.864 0 0 0-.652-.305 1.05 1.05 0 0 0-.701.301 1.126 1.126 0 0 0-.333.708h1.908ZM125.975 27.745h.847l.92 2.91h.02l.921-2.91h.82l-1.338 3.804h-.857l-1.333-3.804ZM133.231 29.898h-2.641c.043.306.195.585.427.781.231.196.525.295.823.277a1.89 1.89 0 0 0 1.197-.452v.74a2.178 2.178 0 0 1-1.276.396 1.886 1.886 0 0 1-1.331-.564 2.03 2.03 0 0 1-.582-1.364 2.036 2.036 0 0 1 .493-1.4 1.897 1.897 0 0 1 1.292-.656c.232.001.462.054.674.154.212.1.4.247.553.429a1.733 1.733 0 0 1 .391 1.34c.001.107-.006.213-.02.319Zm-.731-.55a.958.958 0 0 0-.222-.705.901.901 0 0 0-.295-.224.859.859 0 0 0-.356-.081 1.052 1.052 0 0 0-.702.301c-.191.186-.31.438-.334.708h1.909ZM134.112 25.97h.792v5.579h-.792v-5.58ZM135.764 29.644c.01-.38.128-.749.34-1.06.211-.311.506-.551.848-.69.342-.138.716-.169 1.075-.089.358.08.686.269.943.541.256.273.429.617.498.991a2 2 0 0 1-.113 1.112c-.142.35-.38.65-.685.862a1.825 1.825 0 0 1-1.031.326 1.79 1.79 0 0 1-.733-.145 1.846 1.846 0 0 1-.618-.433 1.918 1.918 0 0 1-.403-.652 1.98 1.98 0 0 1-.121-.763Zm2.929 0a1.178 1.178 0 0 0-.274-.855 1.106 1.106 0 0 0-.355-.276 1.07 1.07 0 0 0-.431-.108 1.167 1.167 0 0 0-.704.135 1.225 1.225 0 0 0-.505.526 1.285 1.285 0 0 0 .166 1.406c.162.19.376.323.613.383s.486.045.714-.045c.228-.09.425-.25.563-.457.139-.209.213-.456.213-.709ZM140.34 27.745h.658l.087.648c.127-.227.309-.416.529-.547.219-.13.468-.2.721-.198.461.069.882.307 1.188.67.305.365.475.83.477 1.313a2.06 2.06 0 0 1-.464 1.317c-.302.367-.721.61-1.181.684a1.389 1.389 0 0 1-.704-.188 1.456 1.456 0 0 1-.525-.523V33h-.792l.006-5.255Zm2.869 1.898a1.117 1.117 0 0 0-.246-.56 1.045 1.045 0 0 0-.498-.334 1.018 1.018 0 0 0-.593-.002 1.05 1.05 0 0 0-.501.33c-.133.157-.22.35-.25.557-.03.207-.002.419.08.61.083.19.216.353.385.468.169.115.366.177.568.179.149-.006.296-.044.431-.11a1.145 1.145 0 0 0 .574-.678 1.2 1.2 0 0 0 .05-.459Z" fill="#fff"/></svg>